<svg width="248" height="81" viewBox="0 0 248 81" fill="none" xmlns="http://www.w3.org/2000/svg">
<path d="M226.928 39.4583H219.449C223.919 35.2861 226.278 30.4307 226.278 25.3721C226.278 18.569 222.03 12.1808 214.319 7.39032C206.651 2.62529 196.462 0 185.626 0C174.79 0 164.601 2.62529 156.933 7.39032C154.273 9.04453 152.024 10.8851 150.22 12.8695V1.41991H14.261V40.5141C5.98317 43.2607 -0.000488281 51.0463 -0.000488281 60.1953C-0.000488281 71.6308 9.34649 80.935 20.8345 80.935H226.928C238.416 80.935 247.763 71.6308 247.763 60.1953C247.763 48.7597 238.416 39.4555 226.928 39.4555V39.4583ZM185.623 0.589983C207.712 0.589983 225.683 11.7065 225.683 25.3721C225.683 30.4335 223.224 35.303 218.573 39.4583H152.673C151.772 38.6538 150.955 37.821 150.22 36.9657L150.15 36.881C147.348 33.5867 145.782 29.9 145.587 26.1653C145.587 26.1315 145.584 26.0976 145.581 26.0609C145.57 25.8294 145.564 25.6008 145.564 25.3693C145.564 25.1378 145.57 24.895 145.581 24.6579C145.581 24.6071 145.587 24.5563 145.59 24.5027C145.601 24.3079 145.615 24.1131 145.632 23.9183C145.635 23.8788 145.641 23.8393 145.643 23.7998C145.666 23.5768 145.694 23.3537 145.726 23.1307C145.726 23.1251 145.726 23.1194 145.726 23.1166C146.091 20.6494 147.056 18.2246 148.576 15.938C148.593 15.9126 148.61 15.8844 148.63 15.859C148.76 15.6642 148.896 15.4694 149.035 15.2775C149.058 15.2464 149.078 15.2154 149.1 15.1871C149.242 14.9924 149.39 14.8004 149.54 14.6084C149.631 14.4927 149.724 14.377 149.821 14.2612C149.883 14.185 149.945 14.106 150.011 14.0297C156.675 6.05227 170.137 0.587161 185.623 0.587161V0.589983ZM151.8 39.4583H150.22V37.8606C150.714 38.4026 151.241 38.9361 151.8 39.4583ZM14.8566 40.3278V2.0099H149.628V13.547C146.971 16.6946 145.405 20.1724 145.051 23.7969C145.051 23.8195 145.045 23.8421 145.045 23.8647C145.025 24.0764 145.011 24.2881 145 24.4998C145 24.5478 144.994 24.5958 144.991 24.641C144.98 24.8838 144.974 25.1265 144.974 25.3693C144.974 25.6121 144.98 25.8435 144.991 26.0778C144.991 26.1145 144.994 26.1512 144.997 26.1879C145.192 30.0581 146.775 33.7956 149.631 37.1803V39.4555H20.8345C20.6077 39.4555 20.3808 39.4611 20.1568 39.4668C20.0944 39.4668 20.032 39.4724 19.9724 39.4753C19.7853 39.4837 19.5981 39.4922 19.4109 39.5063C19.3684 39.5091 19.3259 39.512 19.2833 39.5148C19.0621 39.5317 18.8409 39.5515 18.6197 39.5741C18.563 39.5797 18.5035 39.5882 18.4468 39.5938C18.2738 39.6136 18.1008 39.6362 17.9306 39.6587C17.8682 39.6672 17.8058 39.6757 17.7463 39.6842C17.5364 39.7152 17.3266 39.7491 17.1167 39.7886C17.0515 39.7999 16.9891 39.814 16.9239 39.8253C16.7708 39.8535 16.6205 39.8846 16.4702 39.9156C16.3879 39.9326 16.3028 39.9523 16.2206 39.9693C16.0505 40.0088 15.8803 40.0483 15.713 40.0906C15.5996 40.1189 15.4833 40.1499 15.3698 40.181C15.2621 40.2092 15.1515 40.2403 15.0437 40.2713C14.9842 40.2882 14.9218 40.3052 14.8622 40.3221L14.8566 40.3278ZM226.928 80.3478H20.8345C9.67262 80.3478 0.592205 71.309 0.592205 60.1981C0.592205 51.1818 6.57302 43.5289 14.7913 40.9657C14.9615 40.9121 15.1345 40.8613 15.3075 40.8133C15.401 40.7879 15.4946 40.7625 15.591 40.7371C15.7243 40.7004 15.8605 40.6665 15.9937 40.6326C16.076 40.6129 16.1554 40.5931 16.2376 40.5734C16.439 40.5254 16.6403 40.483 16.8445 40.4435C16.9154 40.4294 16.9863 40.4153 17.0572 40.404C17.2387 40.3701 17.4202 40.3391 17.6017 40.308C17.647 40.2995 17.6896 40.2939 17.735 40.2854C17.9562 40.2516 18.1773 40.2233 18.3985 40.1951C18.4581 40.1866 18.5176 40.181 18.5772 40.1753C18.7927 40.1528 19.0083 40.1302 19.2238 40.1132C19.2408 40.1132 19.255 40.1104 19.272 40.1104C19.5017 40.0935 19.7342 40.0794 19.9639 40.0709C20.0207 40.0709 20.0774 40.0652 20.1341 40.0652C20.3666 40.0568 20.602 40.0511 20.8374 40.0511H226.93C238.092 40.0511 247.173 49.09 247.173 60.2009C247.173 71.3118 238.092 80.3507 226.93 80.3507L226.928 80.3478Z" fill="#E7E6E2"/>
<path d="M28.151 31.5376V11.7096H30.6437V31.2355L41.4398 30.9335V33.0535L30.0028 33.3555C28.8175 33.3866 28.1482 32.6893 28.1482 31.5404L28.151 31.5376Z" fill="#E7E6E2"/>
<path d="M52.7117 11.2238L53.1995 13.1603L43.8922 15.5513L43.3761 13.6148L52.7146 11.2238H52.7117ZM43.9518 30.9332H48.2396V19.8533L45.0464 20.1272V18.0072L48.5146 17.7051C49.9127 17.5837 50.4912 18.3713 50.4912 19.763V30.936H54.7791V33.056H43.9518V30.9332Z" fill="#E7E6E2"/>
<path d="M69.9782 30.8429L70.4036 29.1463H69.6747C69.0367 31.478 66.9977 33.3553 63.5606 33.3553C59.1821 33.3553 56.3519 29.996 56.3519 25.5133C56.3519 21.0305 59.1792 17.7024 63.5606 17.7024C66.9977 17.7024 69.0338 19.5796 69.6747 21.9423H70.4036L69.9782 20.2176V10.8032H72.4709V33.056H69.9782V30.8429ZM64.2895 19.8223C61.1558 19.8223 58.8446 21.5189 58.8446 25.5133C58.8446 29.5077 61.1558 31.2353 64.2895 31.2353C67.4231 31.2353 69.9782 29.5387 69.9782 25.5133C69.9782 21.4879 67.4231 19.8223 64.2895 19.8223Z" fill="#E7E6E2"/>
<path d="M83.2922 17.7024C87.5488 17.7024 90.3478 20.3982 90.3478 25.0278V25.996H78.3947C78.5479 28.8415 79.9147 31.2946 83.6552 31.2946C86.1479 31.2946 87.8211 30.0836 88.3684 27.7829H90.8611C90.2826 30.1146 88.4592 33.3525 83.6524 33.3525C78.2387 33.3525 75.9587 29.6601 75.9587 25.3298C75.9587 20.4857 78.9987 17.6996 83.2894 17.6996L83.2922 17.7024ZM87.9147 24.1216C87.9147 21.6996 86.3039 19.7913 83.2922 19.7913C80.2805 19.7913 78.3947 21.6996 78.3947 24.1216H87.9147Z" fill="#E7E6E2"/>
<path d="M94.0979 19.7913C94.0979 18.3685 94.7672 17.6713 96.1965 17.7334L104.591 18.0044V20.1244L96.5907 19.8506V33.0504H94.0979V19.7913Z" fill="#E7E6E2"/>
<path d="M113.308 17.7024C117.565 17.7024 120.364 20.3982 120.364 25.0278V25.996H108.411C108.564 28.8415 109.931 31.2946 113.671 31.2946C116.164 31.2946 117.837 30.0836 118.385 27.7829H120.877C120.299 30.1146 118.475 33.3525 113.669 33.3525C108.255 33.3525 105.975 29.6601 105.975 25.3298C105.975 20.4857 109.015 17.6996 113.306 17.6996L113.308 17.7024ZM117.931 24.1216C117.931 21.6996 116.32 19.7913 113.308 19.7913C110.297 19.7913 108.411 21.6996 108.411 24.1216H117.931Z" fill="#E7E6E2"/>
<path d="M130.25 33.3551C125.352 33.3551 123.344 31.0855 123.344 27.5117H125.837C125.837 30.1144 127.357 31.3255 130.278 31.3255C132.62 31.3255 133.715 30.7807 133.715 29.2365C133.715 27.269 131.676 26.9359 129.214 26.1793C126.356 25.2704 124.045 24.3925 124.045 21.6684C124.045 19.2774 126.084 17.7022 129.549 17.7022C134.262 17.7022 135.692 20.2767 135.692 22.758H133.199C133.199 20.7284 131.951 19.729 129.549 19.729C127.876 19.729 126.537 20.2146 126.537 21.5752C126.537 23.029 127.572 23.4835 130.006 24.2711C132.986 25.2393 136.21 25.9055 136.21 29.1462C136.21 31.4158 134.781 33.3551 130.25 33.3551Z" fill="#E7E6E2"/>
<path d="M163.679 17.7021C160.21 17.7021 158.206 19.5794 157.565 21.9421H156.864L157.258 20.2173V18.007H154.766V36.9486H157.258V30.8455L156.864 29.149H157.565C158.203 31.4807 160.21 33.3579 163.679 33.3579C168.057 33.3579 170.887 29.9986 170.887 25.547C170.887 21.0953 168.06 17.705 163.679 17.705V17.7021ZM162.95 31.2351C159.847 31.2351 157.261 29.5385 157.261 25.5441C157.261 21.5497 159.847 19.8221 162.95 19.8221C166.052 19.8221 168.395 21.578 168.395 25.5441C168.395 29.5103 166.084 31.2351 162.95 31.2351Z" fill="#E7E6E2"/>
<path d="M178.618 24.4856L184.641 23.9097C184.488 21.1546 182.999 19.7911 180.385 19.7911C178.195 19.7911 176.156 20.7594 176.156 23.6048H173.723C173.723 20.4856 176.097 17.7022 180.385 17.7022C184.672 17.7022 187.137 20.4884 187.137 24.5138V30.9331H189.357V33.0531H186.68C185.523 33.0531 184.885 32.4179 184.885 31.2972V30.4786L185.279 28.9034H184.551C183.972 31.2041 182.361 33.3551 178.712 33.3551C174.333 33.3551 173.664 30.4475 173.664 28.8752C173.664 26.4842 175.093 24.8497 178.621 24.4856H178.618ZM179.012 31.2379C182.449 31.2379 184.638 28.878 184.638 25.7587L179.043 26.3346C177.126 26.5152 176.154 27.0911 176.154 28.576C176.154 30.3007 177.248 31.2408 179.012 31.2408V31.2379Z" fill="#E7E6E2"/>
<path d="M191.832 19.7913C191.832 18.3685 192.501 17.6713 193.93 17.7334L202.325 18.0044V20.1244L194.325 19.8505V33.0504H191.832V19.7913Z" fill="#E7E6E2"/>
<path d="M208.908 24.4856L214.931 23.9097C214.778 21.1546 213.289 19.7911 210.674 19.7911C208.485 19.7911 206.446 20.7594 206.446 23.6048H204.013C204.013 20.4856 206.387 17.7022 210.674 17.7022C214.962 17.7022 217.427 20.4884 217.427 24.5138V30.9331H219.647V33.0531H216.97C215.813 33.0531 215.175 32.4179 215.175 31.2972V30.4786L215.569 28.9034H214.84C214.262 31.2041 212.651 33.3551 209.001 33.3551C204.623 33.3551 203.953 30.4475 203.953 28.8752C203.953 26.4842 205.383 24.8497 208.91 24.4856H208.908ZM209.302 31.2379C212.739 31.2379 214.928 28.878 214.928 25.7587L209.333 26.3346C207.416 26.5152 206.443 27.0911 206.443 28.576C206.443 30.3007 207.538 31.2408 209.302 31.2408V31.2379Z" fill="#E7E6E2"/>
<path d="M15.1962 67.8455H19.4528V49.5588L16.3192 49.8298V47.7098L19.847 47.4077C21.2451 47.2864 21.9143 48.0739 21.9143 49.4967V67.8426H26.1426V69.9626H15.1934V67.8426L15.1962 67.8455Z" fill="#E7E6E2"/>
<path d="M32.7018 61.398L38.7251 60.8221C38.572 58.067 37.0832 56.7035 34.4685 56.7035C32.2792 56.7035 30.2402 57.6718 30.2402 60.5173H27.8071C27.8071 57.398 30.1807 54.6146 34.4685 54.6146C38.7563 54.6146 41.2207 57.4008 41.2207 61.4262V67.8455H43.4411V69.9655H40.7641C39.6071 69.9655 38.969 69.3303 38.969 68.2096V67.391L39.3632 65.8158H38.6344C38.0559 68.1165 36.4451 70.2675 32.7953 70.2675C28.4168 70.2675 27.7475 67.3599 27.7475 65.7876C27.7475 63.3966 29.1768 61.7621 32.7046 61.398H32.7018ZM33.0959 68.1503C36.533 68.1503 38.7223 65.7904 38.7223 62.6711L33.1271 63.247C31.2101 63.4277 30.2374 64.0035 30.2374 65.4884C30.2374 67.2132 31.332 68.1532 33.0959 68.1532V68.1503Z" fill="#E7E6E2"/>
<path d="M56.1509 61.6097L53.4739 69.9654H50.9812L57.9148 48.6216H63.025L69.9304 69.9654H67.466L64.7606 61.6097H56.1509ZM64.0885 59.4897L60.8046 49.3188H60.1041L56.8486 59.4897H64.0885Z" fill="#E7E6E2"/>
<path d="M72.1195 56.7037C72.1195 55.2809 72.7887 54.5837 74.218 54.6458L82.6121 54.9196V57.0396L74.6122 56.7658V69.9656H72.1195V56.7037Z" fill="#E7E6E2"/>
<path d="M99.4298 75.4757H96.9371V67.7551L97.3625 66.0586H96.6337C95.9956 68.3903 93.9878 70.2675 90.5508 70.2675C86.141 70.2675 83.3108 66.9083 83.3108 62.4566C83.3108 58.0049 86.1382 54.6146 90.5508 54.6146C93.9878 54.6146 95.9956 56.4918 96.6337 58.8517H97.3625L96.9371 57.127V54.9166H99.4298V75.4757ZM91.2484 56.7346C88.1148 56.7346 85.8036 58.4904 85.8036 62.4566C85.8036 66.4227 88.1148 68.1475 91.2484 68.1475C94.382 68.1475 96.9371 66.451 96.9371 62.4566C96.9371 58.4622 94.382 56.7346 91.2484 56.7346Z" fill="#E7E6E2"/>
<path d="M114.552 61.6099V54.9196H117.017V69.9656H114.552V67.3629L114.946 65.6381H114.246C113.636 68.3622 111.722 70.2705 108.438 70.2705C105.154 70.2705 102.781 68.3029 102.781 64.1251V54.9225H105.273V63.792C105.273 66.9395 106.49 68.1505 109.104 68.1505C112.298 68.1505 114.549 65.6381 114.549 61.6099H114.552Z" fill="#E7E6E2"/>
<path d="M123.415 67.8454V56.7656L120.281 57.0394V54.9194L123.778 54.6174C125.207 54.496 125.754 55.2836 125.754 56.4325V67.8454H130.011V69.9654H119.152V67.8454H123.415ZM122.017 50.4085C122.017 49.2567 122.958 48.3195 124.206 48.3195C125.454 48.3195 126.395 49.2567 126.395 50.4085C126.395 51.6195 125.422 52.5284 124.206 52.5284C122.989 52.5284 122.017 51.6195 122.017 50.4085Z" fill="#E7E6E2"/>
<path d="M140.6 67.8452V69.9652L134.883 70.2673C133.453 70.3576 132.815 69.6011 132.815 68.2094V57.0392H129.469V54.9192H132.815V51.0434L135.28 50.2869V54.9192H139.993V57.0392H135.28V68.1812L140.602 67.8481L140.6 67.8452Z" fill="#E7E6E2"/>
<path d="M149.033 54.6174C153.29 54.6174 156.089 57.3133 156.089 61.9428V62.9111H144.135C144.289 65.7565 145.655 68.2096 149.396 68.2096C151.889 68.2096 153.562 66.9986 154.109 64.698H156.602C156.023 67.0297 154.2 70.2675 149.393 70.2675C143.979 70.2675 141.699 66.5752 141.699 62.2449C141.699 57.4008 144.739 54.6146 149.03 54.6146L149.033 54.6174ZM153.655 61.0367C153.655 58.6146 152.045 56.7064 149.033 56.7064C146.021 56.7064 144.135 58.6146 144.135 61.0367H153.655Z" fill="#E7E6E2"/>
<path d="M166.241 54.6172C169.162 54.6172 172.902 56.2516 173.296 60.613H170.772C170.347 57.7364 168.43 56.7371 166.241 56.7371C162.651 56.7371 161.009 59.3398 161.009 62.4281C161.009 65.5163 162.651 68.1501 166.241 68.1501C168.43 68.1501 170.347 67.1508 170.772 64.2743H173.296C172.902 68.6328 169.159 70.2701 166.241 70.2701C161.343 70.2701 158.516 66.7894 158.516 62.4281C158.516 58.0667 161.343 54.6172 166.241 54.6172Z" fill="#E7E6E2"/>
<path d="M185.36 67.8452V69.9652L179.643 70.2673C178.214 70.3576 177.576 69.6011 177.576 68.2094V57.0392H174.229V54.9192H177.576V51.0434L180.04 50.2869V54.9192H184.753V57.0392H180.04V68.1812L185.363 67.8481L185.36 67.8452Z" fill="#E7E6E2"/>
<path d="M198.814 61.6099V54.9196H201.278V69.9656H198.814V67.3629L199.208 65.6381H198.508C197.898 68.3622 195.984 70.2705 192.7 70.2705C189.416 70.2705 187.042 68.3029 187.042 64.1251V54.9225H189.535V63.792C189.535 66.9395 190.752 68.1505 193.366 68.1505C196.56 68.1505 198.811 65.6381 198.811 61.6099H198.814Z" fill="#E7E6E2"/>
<path d="M204.66 56.7037C204.66 55.2809 205.33 54.5837 206.759 54.6458L215.153 54.9196V57.0396L207.153 56.7658V69.9656H204.66V56.7037Z" fill="#E7E6E2"/>
<path d="M221.129 61.398L227.152 60.8221C226.999 58.067 225.51 56.7035 222.895 56.7035C220.706 56.7035 218.667 57.6718 218.667 60.5173H216.234C216.234 57.398 218.608 54.6146 222.895 54.6146C227.183 54.6146 229.648 57.4008 229.648 61.4262V67.8455H231.868V69.9655H229.191C228.034 69.9655 227.396 69.3303 227.396 68.2096V67.391L227.79 65.8158H227.061C226.483 68.1165 224.872 70.2675 221.222 70.2675C216.844 70.2675 216.175 67.3599 216.175 65.7876C216.175 63.3966 217.604 61.7621 221.132 61.398H221.129ZM221.523 68.1503C224.96 68.1503 227.149 65.7904 227.149 62.6711L221.554 63.247C219.637 63.4277 218.664 64.0035 218.664 65.4884C218.664 67.2132 219.759 68.1532 221.523 68.1532V68.1503Z" fill="#E7E6E2"/>
</svg>
