<svg xmlns="http://www.w3.org/2000/svg" viewBox="0 0 200 80" fill="none">

<rect x="10" y="10" width="180" height="60" fill="white"/>
<path d="M45 55 L35 25 H45 L55 45 L65 25 H75 L65 55 H55 L50 35 L45 55 Z" fill="black"/>
<path d="M85 25 H95 V35 H105 V25 H115 V55 H105 V45 H95 V55 H85 V25 Z" fill="black"/> 
<path d="M125 45 H135 Q135 55 145 55 Q155 55 155 45 Q155 35 145 35 H135 Q125 35 125 25 Q125 15 145 15 Q165 15 165 25 H155 Q155 20 145 20 Q135 20 135 25 Q135 30 145 30 H155 Q165 30 165 45 Q165 55 145 55 Q125 55 125 45 Z" fill="black"/>

</svg>